<svg width="240" height="55" viewBox="0 0 240 55" fill="none" xmlns="http://www.w3.org/2000/svg">
<path d="M25.032 54.64C21.192 54.64 17.7147 54.0853 14.6 52.976C11.528 51.824 8.904 50.2027 6.728 48.112C4.59467 45.9787 2.93067 43.4187 1.736 40.432C0.584 37.4027 0.00800014 34.0107 0.00800014 30.256C0.00800014 26.3733 0.626667 22.832 1.864 19.632C3.144 16.3893 4.91467 13.616 7.176 11.312C9.43733 9.008 12.1467 7.23733 15.304 6C18.4613 4.72 21.96 4.08 25.8 4.08C28.4453 4.08 30.9627 4.44267 33.352 5.168C35.7413 5.89333 38.3227 7.06666 41.096 8.688L42.312 4.72H44.616V20.912H41.416C40.5627 16.9013 38.8347 13.7867 36.232 11.568C33.672 9.34933 30.4507 8.24 26.568 8.24C21.6613 8.24 17.8427 10.1387 15.112 13.936C12.424 17.6907 11.08 22.96 11.08 29.744C11.08 36.4 12.4027 41.4987 15.048 45.04C17.6933 48.5813 21.5333 50.352 26.568 50.352C30.1947 50.352 33.0107 49.4347 35.016 47.6C37.064 45.7227 38.088 43.1413 38.088 39.856C38.088 37.8933 37.576 36.464 36.552 35.568C35.528 34.6293 33.8 34.0533 31.368 33.84V31.28H52.104V33.84C50.0133 33.84 48.5627 34.3093 47.752 35.248C46.9413 36.144 46.536 37.7867 46.536 40.176V48.688C45.5973 48.688 44.808 48.7307 44.168 48.816C43.528 48.8587 42.888 48.9867 42.248 49.2C41.6507 49.3707 40.968 49.6693 40.2 50.096C39.432 50.5227 38.472 51.0773 37.32 51.76C34.0347 53.68 29.9387 54.64 25.032 54.64ZM68.8705 43.504C68.8705 45.2107 68.9345 46.576 69.0625 47.6C69.1905 48.624 69.4465 49.4133 69.8305 49.968C70.2145 50.5227 70.7692 50.9067 71.4945 51.12C72.2198 51.2907 73.2012 51.3973 74.4385 51.44V54H54.2785V51.44C55.4732 51.3973 56.4332 51.2693 57.1585 51.056C57.9265 50.8 58.5025 50.416 58.8865 49.904C59.3132 49.3493 59.5905 48.6027 59.7185 47.664C59.8892 46.6827 59.9745 45.4453 59.9745 43.952V17.52C59.9745 15.0453 59.9318 13.0187 59.8465 11.44C59.7612 9.81867 59.6545 8.70933 59.5265 8.112C59.3132 7.04533 58.8225 6.34133 58.0545 6C57.3292 5.65866 55.9852 5.488 54.0225 5.488V3.312L68.8705 0.879997V43.504ZM96.8045 19.44C99.3645 19.44 101.775 19.888 104.037 20.784C106.341 21.6373 108.346 22.832 110.053 24.368C111.802 25.904 113.167 27.7387 114.149 29.872C115.173 31.9627 115.685 34.2667 115.685 36.784C115.685 39.3867 115.173 41.776 114.149 43.952C113.167 46.128 111.802 48.0053 110.053 49.584C108.346 51.1627 106.341 52.4 104.037 53.296C101.775 54.192 99.3645 54.64 96.8045 54.64C94.2872 54.64 91.8978 54.2133 89.6365 53.36C87.3752 52.464 85.3912 51.2267 83.6845 49.648C81.9778 48.0693 80.6338 46.192 79.6525 44.016C78.6712 41.7973 78.1805 39.3867 78.1805 36.784C78.1805 34.2667 78.6712 31.9413 79.6525 29.808C80.6338 27.6747 81.9778 25.84 83.6845 24.304C85.3912 22.768 87.3752 21.5733 89.6365 20.72C91.8978 19.8667 94.2872 19.44 96.8045 19.44ZM96.8045 23.152C95.5245 23.152 94.3512 23.4933 93.2845 24.176C92.2178 24.816 91.3005 25.7333 90.5325 26.928C89.8072 28.1227 89.2312 29.5733 88.8045 31.28C88.4205 32.944 88.2285 34.8 88.2285 36.848C88.2285 38.9813 88.4205 40.9013 88.8045 42.608C89.2312 44.3147 89.8072 45.7653 90.5325 46.96C91.3005 48.1547 92.1965 49.0933 93.2205 49.776C94.2872 50.416 95.4818 50.736 96.8045 50.736C98.1272 50.736 99.3218 50.416 100.389 49.776C101.498 49.0933 102.437 48.1547 103.205 46.96C103.973 45.7227 104.57 44.2507 104.997 42.544C105.423 40.8373 105.637 38.9387 105.637 36.848C105.637 34.8 105.423 32.944 104.997 31.28C104.57 29.616 103.973 28.1867 103.205 26.992C102.437 25.7547 101.498 24.816 100.389 24.176C99.3218 23.4933 98.1272 23.152 96.8045 23.152ZM132.463 39.984C132.463 41.5627 132.676 43.0347 133.103 44.4C133.572 45.7227 134.191 46.8747 134.958 47.856C135.727 48.8373 136.644 49.6053 137.711 50.16C138.777 50.7147 139.951 50.992 141.231 50.992C143.791 50.992 145.732 49.8187 147.055 47.472C148.377 45.1253 149.039 41.6693 149.039 37.104C149.039 32.6667 148.377 29.296 147.055 26.992C145.775 24.6453 143.833 23.472 141.231 23.472C139.695 23.472 138.265 23.8987 136.943 24.752C135.663 25.5627 134.66 26.7147 133.935 28.208C132.953 30.256 132.463 32.8373 132.463 35.952V39.984ZM132.335 24.496H132.591C133.7 22.8747 135.129 21.6373 136.878 20.784C138.628 19.888 140.612 19.44 142.831 19.44C145.092 19.44 147.183 19.9093 149.103 20.848C151.065 21.744 152.751 22.9813 154.159 24.56C155.609 26.1387 156.74 27.9947 157.551 30.128C158.361 32.2613 158.767 34.544 158.767 36.976C158.767 39.536 158.319 41.904 157.423 44.08C156.569 46.2133 155.375 48.0693 153.839 49.648C152.345 51.2267 150.575 52.464 148.527 53.36C146.521 54.256 144.388 54.704 142.127 54.704C139.78 54.704 137.561 54.256 135.471 53.36C133.423 52.4213 131.78 51.2053 130.543 49.712L125.679 54H123.503V15.92C123.503 11.9093 123.225 9.15733 122.671 7.664C122.543 7.36533 122.393 7.10933 122.223 6.896C122.052 6.68266 121.796 6.512 121.455 6.384C121.156 6.21333 120.729 6.08533 120.174 6C119.62 5.872 118.895 5.744 117.998 5.616V3.44L132.335 0.879997V24.496ZM195.748 48.048C191.865 52.4427 187.022 54.64 181.22 54.64C178.574 54.64 176.164 54.2347 173.988 53.424C171.854 52.5707 170.02 51.3973 168.484 49.904C166.948 48.368 165.753 46.5547 164.9 44.464C164.046 42.3733 163.62 40.048 163.62 37.488C163.62 34.8427 164.068 32.432 164.964 30.256C165.86 28.0373 167.118 26.1387 168.74 24.56C170.404 22.9387 172.345 21.68 174.564 20.784C176.825 19.888 179.3 19.44 181.988 19.44C186.51 19.44 190.03 20.656 192.548 23.088C195.065 25.52 196.324 28.9333 196.324 33.328C196.324 34.0107 196.217 34.4373 196.004 34.608C195.79 34.736 195.193 34.8 194.212 34.8H173.604C173.433 35.184 173.348 35.888 173.348 36.912C173.348 41.0933 174.244 44.4 176.036 46.832C177.87 49.264 180.345 50.48 183.46 50.48C185.252 50.48 187.022 50.0747 188.772 49.264C190.564 48.4533 192.292 47.3013 193.956 45.808L195.748 48.048ZM183.332 31.216C185.038 31.216 186.126 31.1307 186.596 30.96C187.108 30.7467 187.364 30.2773 187.364 29.552C187.364 27.6747 186.83 26.1387 185.764 24.944C184.697 23.7493 183.353 23.152 181.732 23.152C179.897 23.152 178.254 23.92 176.804 25.456C175.396 26.9493 174.478 28.8693 174.052 31.216H183.332ZM223.984 28.144C224.88 26.992 225.477 26.1813 225.776 25.712C226.075 25.2427 226.224 24.7733 226.224 24.304C226.224 23.7067 225.968 23.28 225.456 23.024C224.987 22.768 224.176 22.64 223.024 22.64V20.08H237.744V22.64C236.933 22.6827 236.208 22.768 235.568 22.896C234.928 23.024 234.288 23.28 233.648 23.664C233.008 24.0053 232.347 24.496 231.664 25.136C230.981 25.776 230.192 26.608 229.296 27.632L222.768 35.184L232.88 48.176C233.861 49.456 234.821 50.3307 235.76 50.8C236.699 51.2267 237.872 51.44 239.28 51.44V54H218.928V51.44C220.165 51.44 221.019 51.3333 221.488 51.12C222 50.9067 222.256 50.5013 222.256 49.904C222.256 49.4347 222.107 48.944 221.808 48.432C221.509 47.8773 221.061 47.1733 220.464 46.32L216.752 41.2L213.936 44.592C213.211 45.488 212.635 46.2133 212.208 46.768C211.781 47.3227 211.461 47.7707 211.248 48.112C211.035 48.4533 210.885 48.7307 210.8 48.944C210.757 49.1147 210.736 49.2853 210.736 49.456C210.736 50.1813 211.035 50.6933 211.632 50.992C212.272 51.2907 213.275 51.44 214.64 51.44V54H198.576V51.44C199.941 51.44 201.264 51.248 202.544 50.864C203.824 50.4373 204.827 49.7973 205.552 48.944L214.448 38.512L203.76 24.944C202.949 23.92 202.224 23.28 201.584 23.024C200.987 22.768 200.155 22.64 199.088 22.64V20.08H218.608V22.64C216.432 22.64 215.344 23.2373 215.344 24.432C215.344 24.8587 215.579 25.4133 216.048 26.096L220.592 32.496L223.984 28.144Z" fill="white"/>
</svg>
